<svg width="512" height="512" viewBox="0 0 512 512" fill="none" xmlns="http://www.w3.org/2000/svg">
<rect width="512" height="512" fill="url(#paint0_linear_2_15)"/>
<path d="M107.319 176.99V303.41C107.319 318.6 103.073 330.36 94.5795 338.69C86.2495 346.857 75.0611 350.94 61.0145 350.94C48.9278 350.94 38.9645 347.673 31.1245 341.14C23.2845 334.607 18.2211 325.95 15.9345 315.17L28.9195 311.985C30.8795 319.498 34.4728 325.705 39.6995 330.605C45.0895 335.505 52.3578 337.955 61.5045 337.955C71.7945 337.955 79.5528 334.852 84.7795 328.645C90.0061 322.438 92.6195 313.292 92.6195 301.205V189.975H33.3295V176.99H107.319ZM154.645 176.99H221.53C234.923 176.99 245.376 180.828 252.89 188.505C260.566 196.018 264.405 206.553 264.405 220.11C264.405 225.99 263.588 231.135 261.955 235.545C260.485 239.955 258.525 243.63 256.075 246.57C253.625 249.51 250.766 251.878 247.5 253.675C244.396 255.472 241.293 256.697 238.19 257.35V258.33C242.11 258.82 246.03 260.045 249.95 262.005C253.87 263.802 257.381 266.415 260.485 269.845C263.588 273.112 266.12 277.277 268.08 282.34C270.04 287.24 271.02 293.038 271.02 299.735C271.02 306.758 269.958 313.21 267.835 319.09C265.875 324.97 262.935 330.115 259.015 334.525C255.258 338.772 250.685 342.12 245.295 344.57C240.068 346.857 234.188 348 227.655 348H154.645V176.99ZM169.345 335.015H223.735C234.025 335.015 241.865 332.238 247.255 326.685C252.645 320.968 255.34 313.618 255.34 304.635V295.57C255.34 286.75 252.645 279.563 247.255 274.01C241.865 268.293 234.025 265.435 223.735 265.435H169.345V335.015ZM169.345 252.695H220.06C229.37 252.695 236.475 250.245 241.375 245.345C246.275 240.282 248.725 233.83 248.725 225.99V216.68C248.725 208.84 246.275 202.47 241.375 197.57C236.475 192.507 229.37 189.975 220.06 189.975H169.345V252.695ZM334.907 348L291.787 176.99H307.467L343.972 329.87H344.707L385.132 176.99H403.017L442.952 329.87H443.687L481.417 176.99H496.607L452.017 348H434.867L393.952 193.405H393.462L352.057 348H334.907Z" fill="black"/>
<defs>
<linearGradient id="paint0_linear_2_15" x1="512" y1="-5" x2="0" y2="512" gradientUnits="userSpaceOnUse">
<stop stop-color="#0F658A"/>
<stop offset="0.703125" stop-color="white"/>
</linearGradient>
</defs>
</svg>
